<svg width="32" height="32" viewBox="0 0 32 32" fill="none" xmlns="http://www.w3.org/2000/svg">
<path d="M26.3273 17.0335V12.9029C26.3273 7.73963 24.262 5.67432 19.0987 5.67432H12.9028C7.7395 5.67432 5.67419 7.73963 5.67419 12.9029V19.0988C5.67419 24.2621 7.7395 26.3274 12.9028 26.3274H17.0334" stroke="#EEF0F4" stroke-width="2" stroke-linecap="round" stroke-linejoin="round"/>
<path d="M11.1782 18.5722L13.6359 15.3813C13.987 14.9269 14.6376 14.8443 15.092 15.1954L16.9818 16.6824C17.4361 17.0335 18.0867 16.9509 18.4378 16.5069L20.8232 13.4296" stroke="#EEF0F4" stroke-width="2" stroke-linecap="round" stroke-linejoin="round"/>
<path d="M24.3084 19.9397L24.5975 20.5283C24.7421 20.8174 25.1035 21.0859 25.4236 21.1479L25.816 21.2099C26.9933 21.4061 27.2721 22.2735 26.4253 23.1306L26.0639 23.492C25.8264 23.7398 25.6921 24.2149 25.7644 24.5453L25.816 24.7622C26.1362 26.1873 25.3823 26.7345 24.1432 25.991L23.8747 25.8361C23.5545 25.6503 23.0382 25.6503 22.7181 25.8361L22.4496 25.991C21.2001 26.7449 20.4462 26.1873 20.7767 24.7622L20.8283 24.5453C20.9006 24.2149 20.7664 23.7398 20.5289 23.492L20.1674 23.1306C19.3206 22.2735 19.5995 21.4061 20.7767 21.2099L21.1691 21.1479C21.4789 21.0963 21.8506 20.8174 21.9952 20.5283L22.2844 19.9397C22.842 18.8141 23.7507 18.8141 24.3084 19.9397Z" stroke="#EEF0F4" stroke-width="2" stroke-linecap="round" stroke-linejoin="round"/>
</svg>
