<svg width="24" height="24" viewBox="0 0 24 24" fill="none" xmlns="http://www.w3.org/2000/svg">
<path d="M18.2222 12.3889V16.8333C18.2222 17.3222 17.8222 17.7222 17.3333 17.7222H6.66667C6.17778 17.7222 5.77778 17.3222 5.77778 16.8333V12.3889C5.77778 11.9 5.37778 11.5 4.88889 11.5C4.4 11.5 4 11.9 4 12.3889V17.7222C4 18.7 4.8 19.5 5.77778 19.5H18.2222C19.2 19.5 20 18.7 20 17.7222V12.3889C20 11.9 19.6 11.5 19.1111 11.5C18.6222 11.5 18.2222 11.9 18.2222 12.3889Z" fill="#8A93A2"/>
<path d="M14.56 10.4244L12.8889 12.0956V5.38889C12.8889 4.9 12.4889 4.5 12 4.5C11.5111 4.5 11.1111 4.9 11.1111 5.38889V12.0956L9.43112 10.4244C9.08445 10.0778 8.52445 10.0778 8.17779 10.4244C7.83112 10.7711 7.83112 11.3311 8.17779 11.6778L11.3689 14.8689C11.7156 15.2156 12.2756 15.2156 12.6222 14.8689L15.8133 11.6778C16.16 11.3311 16.16 10.7711 15.8133 10.4244C15.4667 10.0778 14.9067 10.0778 14.56 10.4244Z" fill="#8A93A2"/>
</svg>
