<svg width="72" height="56" viewBox="0 0 72 56" fill="none" xmlns="http://www.w3.org/2000/svg">
<path d="M39.1973 28.9707C39.1973 28.6152 39.1426 28.2962 39.0332 28.0137C38.9329 27.722 38.7415 27.4577 38.459 27.2207C38.1764 26.9746 37.7799 26.7331 37.2695 26.4961C36.7591 26.2591 36.0983 26.013 35.2871 25.7578C34.3848 25.4661 33.528 25.138 32.7168 24.7734C31.9147 24.4089 31.2038 23.985 30.584 23.502C29.9733 23.0098 29.4902 22.4401 29.1348 21.793C28.7884 21.1458 28.6152 20.3939 28.6152 19.5371C28.6152 18.7077 28.7975 17.9557 29.1621 17.2812C29.5267 16.5977 30.0371 16.0143 30.6934 15.5312C31.3496 15.0391 32.1243 14.6608 33.0176 14.3965C33.9199 14.1322 34.9089 14 35.9844 14C37.4518 14 38.7324 14.2643 39.8262 14.793C40.9199 15.3216 41.7676 16.0462 42.3691 16.9668C42.9798 17.8874 43.2852 18.9401 43.2852 20.125H39.2109C39.2109 19.5417 39.0879 19.0312 38.8418 18.5938C38.6048 18.1471 38.2402 17.7962 37.748 17.541C37.265 17.2858 36.6543 17.1582 35.916 17.1582C35.2051 17.1582 34.6126 17.2676 34.1387 17.4863C33.6647 17.696 33.3092 17.9831 33.0723 18.3477C32.8353 18.7031 32.7168 19.1042 32.7168 19.5508C32.7168 19.888 32.7988 20.1934 32.9629 20.4668C33.1361 20.7402 33.3913 20.9954 33.7285 21.2324C34.0658 21.4694 34.4805 21.6927 34.9727 21.9023C35.4648 22.112 36.0345 22.3171 36.6816 22.5176C37.7663 22.8457 38.7188 23.2148 39.5391 23.625C40.3685 24.0352 41.0612 24.4954 41.6172 25.0059C42.1732 25.5163 42.5924 26.0951 42.875 26.7422C43.1576 27.3893 43.2988 28.123 43.2988 28.9434C43.2988 29.8092 43.1302 30.584 42.793 31.2676C42.4557 31.9512 41.9681 32.5299 41.3301 33.0039C40.6921 33.4779 39.931 33.8379 39.0469 34.084C38.1628 34.3301 37.1738 34.4531 36.0801 34.4531C35.0957 34.4531 34.125 34.3255 33.168 34.0703C32.2109 33.806 31.3405 33.4095 30.5566 32.8809C29.7819 32.3522 29.1621 31.6777 28.6973 30.8574C28.2324 30.0371 28 29.0664 28 27.9453H32.1152C32.1152 28.5651 32.2109 29.0892 32.4023 29.5176C32.5938 29.946 32.8626 30.2923 33.209 30.5566C33.5645 30.821 33.9837 31.0124 34.4668 31.1309C34.959 31.2493 35.4967 31.3086 36.0801 31.3086C36.791 31.3086 37.3743 31.2083 37.8301 31.0078C38.2949 30.8073 38.6367 30.5293 38.8555 30.1738C39.0833 29.8184 39.1973 29.4173 39.1973 28.9707Z" fill="#EEF0F4"/>
</svg>
