<svg width="110" height="36" viewBox="0 0 110 36" fill="none" xmlns="http://www.w3.org/2000/svg">
<path d="M21.1973 22.9844C21.1973 22.6289 21.1426 22.3099 21.0332 22.0273C20.9329 21.7357 20.7415 21.4714 20.459 21.2344C20.1764 20.9883 19.7799 20.7467 19.2695 20.5098C18.7591 20.2728 18.0983 20.0267 17.2871 19.7715C16.3848 19.4798 15.528 19.1517 14.7168 18.7871C13.9147 18.4225 13.2038 17.9987 12.584 17.5156C11.9733 17.0234 11.4902 16.4538 11.1348 15.8066C10.7884 15.1595 10.6152 14.4076 10.6152 13.5508C10.6152 12.7214 10.7975 11.9694 11.1621 11.2949C11.5267 10.6113 12.0371 10.028 12.6934 9.54492C13.3496 9.05273 14.1243 8.67448 15.0176 8.41016C15.9199 8.14583 16.9089 8.01367 17.9844 8.01367C19.4518 8.01367 20.7324 8.27799 21.8262 8.80664C22.9199 9.33529 23.7676 10.0599 24.3691 10.9805C24.9798 11.901 25.2852 12.9538 25.2852 14.1387H21.2109C21.2109 13.5553 21.0879 13.0449 20.8418 12.6074C20.6048 12.1608 20.2402 11.8099 19.748 11.5547C19.265 11.2995 18.6543 11.1719 17.916 11.1719C17.2051 11.1719 16.6126 11.2812 16.1387 11.5C15.6647 11.7096 15.3092 11.9967 15.0723 12.3613C14.8353 12.7168 14.7168 13.1178 14.7168 13.5645C14.7168 13.9017 14.7988 14.207 14.9629 14.4805C15.1361 14.7539 15.3913 15.0091 15.7285 15.2461C16.0658 15.4831 16.4805 15.7064 16.9727 15.916C17.4648 16.1257 18.0345 16.3307 18.6816 16.5312C19.7663 16.8594 20.7188 17.2285 21.5391 17.6387C22.3685 18.0488 23.0612 18.5091 23.6172 19.0195C24.1732 19.5299 24.5924 20.1087 24.875 20.7559C25.1576 21.403 25.2988 22.1367 25.2988 22.957C25.2988 23.8229 25.1302 24.5977 24.793 25.2812C24.4557 25.9648 23.9681 26.5436 23.3301 27.0176C22.6921 27.4915 21.931 27.8516 21.0469 28.0977C20.1628 28.3438 19.1738 28.4668 18.0801 28.4668C17.0957 28.4668 16.125 28.3392 15.168 28.084C14.2109 27.8197 13.3405 27.4232 12.5566 26.8945C11.7819 26.3659 11.1621 25.6914 10.6973 24.8711C10.2324 24.0508 10 23.0801 10 21.959H14.1152C14.1152 22.5788 14.2109 23.1029 14.4023 23.5312C14.5938 23.9596 14.8626 24.306 15.209 24.5703C15.5645 24.8346 15.9837 25.026 16.4668 25.1445C16.959 25.263 17.4967 25.3223 18.0801 25.3223C18.791 25.3223 19.3743 25.222 19.8301 25.0215C20.2949 24.821 20.6367 24.543 20.8555 24.1875C21.0833 23.832 21.1973 23.431 21.1973 22.9844Z" fill="#EEF0F4"/>
<path d="M29.9609 8.28711H33.4336L38.5469 22.9023L43.6602 8.28711H47.1328L39.9414 28.1934H37.1523L29.9609 8.28711ZM28.0879 8.28711H31.5469L32.1758 22.5332V28.1934H28.0879V8.28711ZM45.5469 8.28711H49.0195V28.1934H44.918V22.5332L45.5469 8.28711Z" fill="#EEF0F4"/>
<path d="M65.9727 24.9941V28.1934H55.377V24.9941H65.9727ZM56.7168 8.28711V28.1934H52.6152V8.28711H56.7168ZM64.5918 16.3945V19.5117H55.377V16.3945H64.5918ZM65.959 8.28711V11.5H55.377V8.28711H65.959Z" fill="#EEF0F4"/>
<path d="M79.9043 21.5898H83.9922C83.9102 22.9297 83.541 24.1191 82.8848 25.1582C82.2376 26.1973 81.3307 27.0085 80.1641 27.5918C79.0065 28.1751 77.612 28.4668 75.9805 28.4668C74.7044 28.4668 73.5605 28.248 72.5488 27.8105C71.5371 27.3639 70.6712 26.7259 69.9512 25.8965C69.2402 25.0671 68.6979 24.0645 68.3242 22.8887C67.9505 21.7129 67.7637 20.3958 67.7637 18.9375V17.5566C67.7637 16.0983 67.9551 14.7812 68.3379 13.6055C68.7298 12.4206 69.2858 11.4134 70.0059 10.584C70.735 9.75456 71.6055 9.11654 72.6172 8.66992C73.6289 8.22331 74.7591 8 76.0078 8C77.6667 8 79.0658 8.30078 80.2051 8.90234C81.3535 9.50391 82.2422 10.3333 82.8711 11.3906C83.5091 12.4479 83.8919 13.651 84.0195 15H79.918C79.8724 14.1979 79.7129 13.5189 79.4395 12.9629C79.166 12.3978 78.7513 11.974 78.1953 11.6914C77.6484 11.3997 76.9193 11.2539 76.0078 11.2539C75.3242 11.2539 74.7272 11.3815 74.2168 11.6367C73.7064 11.8919 73.278 12.2793 72.9316 12.7988C72.5853 13.3184 72.3255 13.9746 72.1523 14.7676C71.9883 15.5514 71.9062 16.472 71.9062 17.5293V18.9375C71.9062 19.9674 71.9837 20.8743 72.1387 21.6582C72.2936 22.4329 72.5306 23.0892 72.8496 23.627C73.1777 24.1556 73.597 24.5566 74.1074 24.8301C74.627 25.0944 75.2513 25.2266 75.9805 25.2266C76.8372 25.2266 77.5436 25.0898 78.0996 24.8164C78.6556 24.543 79.0794 24.1374 79.3711 23.5996C79.6719 23.0618 79.8496 22.3919 79.9043 21.5898Z" fill="#EEF0F4"/>
<path d="M90.7871 8.28711V28.1934H86.6855V8.28711H90.7871ZM98.7168 16.791V19.9902H89.666V16.791H98.7168ZM99.6738 8.28711V11.5H89.666V8.28711H99.6738Z" fill="#EEF0F4"/>
</svg>
