<svg width="32" height="32" viewBox="0 0 16 16" fill="none" xmlns="http://www.w3.org/2000/svg">
<path fill-rule="evenodd" clip-rule="evenodd" d="M2.49863 10.0715C2.77811 9.55105 3.38114 9.51593 3.78847 9.57704L3.78948 9.57719C4.35053 9.66234 4.93288 9.63561 5.51371 9.47518L5.51576 9.47461C7.67196 8.88728 9.03964 6.59357 8.53916 4.36509L8.53905 4.36465C8.4653 4.03507 8.35937 3.73005 8.2244 3.44248C8.12367 3.22956 8.05251 3.00162 8.04504 2.77316C8.03739 2.53913 8.09809 2.27108 8.30027 2.05855C8.50146 1.84706 8.76447 1.77291 8.99528 1.76634C9.2217 1.75989 9.45187 1.81512 9.66929 1.9004C11.5118 2.61389 12.9885 4.22687 13.4579 6.3409L13.458 6.34126C14.1226 9.34359 12.4164 12.464 9.53055 13.458C6.975 14.3441 4.29346 13.4044 2.7462 11.4144C2.49532 11.0927 2.23133 10.5692 2.49863 10.0715ZM3.78077 10.7868C4.4496 10.8666 5.14242 10.8225 5.83217 10.6321C8.6216 9.87173 10.3477 6.94149 9.70999 4.10214C9.62895 3.74013 9.51653 3.39937 9.37558 3.07601C10.789 3.67447 11.9182 4.94313 12.2863 6.60062C12.8226 9.02304 11.4338 11.5335 9.13924 12.3236L9.13794 12.324C7.14574 13.015 5.04435 12.3219 3.78077 10.7868Z" fill="#FCFDFE"/>
</svg>
