<svg width="32" height="32" viewBox="0 0 16 16" fill="none" xmlns="http://www.w3.org/2000/svg">
<path fill-rule="evenodd" clip-rule="evenodd" d="M7.99998 5.26665C6.49041 5.26665 5.26665 6.49041 5.26665 7.99998C5.26665 9.50956 6.49041 10.7333 7.99998 10.7333C9.50956 10.7333 10.7333 9.50956 10.7333 7.99998C10.7333 6.49041 9.50956 5.26665 7.99998 5.26665ZM4.06665 7.99998C4.06665 5.82766 5.82766 4.06665 7.99998 4.06665C10.1723 4.06665 11.9333 5.82766 11.9333 7.99998C11.9333 10.1723 10.1723 11.9333 7.99998 11.9333C5.82766 11.9333 4.06665 10.1723 4.06665 7.99998Z" fill="#EEF0F4"/>
<path fill-rule="evenodd" clip-rule="evenodd" d="M8 1.43994C8.51547 1.43994 8.93334 1.85781 8.93334 2.37327V2.41829C8.93334 2.93375 8.51547 3.35162 8 3.35162C7.48454 3.35162 7.06667 2.93375 7.06667 2.41829V2.37327C7.06667 1.85781 7.48454 1.43994 8 1.43994ZM3.3226 3.32254C3.68709 2.95805 4.27804 2.95805 4.64253 3.32254L4.71568 3.39568C5.08017 3.76017 5.08017 4.35113 4.71568 4.71562C4.35119 5.0801 3.76023 5.0801 3.39574 4.71562L3.3226 4.64247C2.95811 4.27798 2.95811 3.68703 3.3226 3.32254ZM12.6774 3.32253C13.0419 3.68702 13.0419 4.27798 12.6774 4.64247L12.6043 4.71561C12.2398 5.0801 11.6488 5.0801 11.2843 4.71562C10.9198 4.35113 10.9198 3.76017 11.2843 3.39568L11.3575 3.32254C11.722 2.95805 12.3129 2.95805 12.6774 3.32253ZM1.44 7.99994C1.44 7.48448 1.85787 7.06661 2.37334 7.06661H2.41835C2.93381 7.06661 3.35168 7.48448 3.35168 7.99994C3.35168 8.51541 2.93381 8.93328 2.41835 8.93328H2.37334C1.85787 8.93328 1.44 8.51541 1.44 7.99994ZM12.6483 7.99994C12.6483 7.48448 13.0662 7.06661 13.5817 7.06661H13.6267C14.1421 7.06661 14.56 7.48448 14.56 7.99994C14.56 8.51541 14.1421 8.93328 13.6267 8.93328H13.5817C13.0662 8.93328 12.6483 8.51541 12.6483 7.99994ZM4.71568 11.2843C5.08017 11.6488 5.08016 12.2397 4.71567 12.6042L4.64253 12.6774C4.27804 13.0418 3.68708 13.0418 3.3226 12.6774C2.95811 12.3129 2.95811 11.7219 3.3226 11.3574L3.39574 11.2843C3.76023 10.9198 4.35119 10.9198 4.71568 11.2843ZM11.2843 11.2843C11.6488 10.9198 12.2398 10.9198 12.6043 11.2843L12.6774 11.3574C13.0419 11.7219 13.0419 12.3129 12.6774 12.6774C12.3129 13.0418 11.722 13.0418 11.3575 12.6774L11.2843 12.6042C10.9198 12.2397 10.9198 11.6488 11.2843 11.2843ZM8 12.6483C8.51547 12.6483 8.93334 13.0661 8.93334 13.5816V13.6266C8.93334 14.1421 8.51547 14.5599 8 14.5599C7.48454 14.5599 7.06667 14.1421 7.06667 13.6266V13.5816C7.06667 13.0661 7.48454 12.6483 8 12.6483Z" fill="#EEF0F4"/>
</svg>
