<svg width="16" height="16" viewBox="0 0 16 16" fill="none" xmlns="http://www.w3.org/2000/svg">
<path fill-rule="evenodd" clip-rule="evenodd" d="M3.10908 3.10905C3.87666 2.34148 5.0075 2.06665 6.40001 2.06665H9.60001C10.9925 2.06665 12.1234 2.34148 12.8909 3.10905C13.5925 3.8106 13.8824 4.81562 13.9271 6.04652C13.9312 6.07486 13.9333 6.10384 13.9333 6.13332C13.9333 6.1509 13.9326 6.16831 13.9311 6.18551C13.9326 6.25629 13.9333 6.32779 13.9333 6.39998V9.59998C13.9333 9.67218 13.9326 9.74368 13.9311 9.81445C13.9326 9.83166 13.9333 9.84907 13.9333 9.86665C13.9333 9.89613 13.9312 9.92511 13.9271 9.95344C13.8824 11.1843 13.5925 12.1894 12.8909 12.8909C12.1234 13.6585 10.9925 13.9333 9.60001 13.9333H6.40001C5.0075 13.9333 3.87666 13.6585 3.10908 12.8909C2.34151 12.1233 2.06668 10.9925 2.06668 9.59998V6.39998C2.06668 5.00747 2.34151 3.87663 3.10908 3.10905ZM12.7333 9.26665V6.73331H3.26668V9.26665H5.53869V6.73332H6.73869V9.26665H9.27202V6.73332H10.472V9.26665H12.7333ZM9.27202 10.4667H6.73869V12.7333H9.27202V10.4667ZM10.472 12.6845V10.4667H12.6852C12.5916 11.2267 12.3656 11.7192 12.0424 12.0424C11.72 12.3648 11.229 12.5905 10.472 12.6845ZM3.31485 10.4667H5.53869V12.6858C4.77562 12.5926 4.28151 12.3663 3.95761 12.0424C3.63447 11.7192 3.40845 11.2267 3.31485 10.4667ZM12.0424 3.95758C12.3656 4.28072 12.5916 4.77329 12.6852 5.53332H3.31485C3.40845 4.77329 3.63447 4.28072 3.95761 3.95758C4.39004 3.52516 5.12586 3.26665 6.40001 3.26665H9.60001C10.8742 3.26665 11.61 3.52516 12.0424 3.95758Z" fill="#055FFC"/>
</svg>
