<svg width="12" height="10" viewBox="0 0 12 10" fill="none" xmlns="http://www.w3.org/2000/svg">
<path fill-rule="evenodd" clip-rule="evenodd" d="M0.666992 5.00671C0.666993 4.82989 0.737234 4.66032 0.862263 4.5353L4.86226 0.535442C5.12262 0.275098 5.54473 0.275105 5.80507 0.535459C6.06542 0.795814 6.06541 1.21792 5.80505 1.47827L2.94318 4.34005L10.667 4.34005C11.0352 4.34004 11.3337 4.63852 11.3337 5.00671C11.3337 5.3749 11.0352 5.67338 10.667 5.67338L2.94315 5.67338L5.80506 8.53527C6.06541 8.79561 6.06541 9.21772 5.80507 9.47808C5.54472 9.73843 5.12261 9.73843 4.86226 9.47808L0.862256 5.47812C0.73723 5.35309 0.666991 5.18352 0.666992 5.00671Z" fill="#D8DEE7"/>
</svg>
